<svg width="25" height="25" viewBox="0 0 25 25" fill="none" xmlns="http://www.w3.org/2000/svg">
<path d="M18.7499 7.34375C18.7499 7.06748 18.6402 6.80253 18.4448 6.60718C18.2495 6.41183 17.9845 6.30208 17.7083 6.30208L9.37494 6.25C9.09867 6.25 8.83372 6.35975 8.63837 6.5551C8.44302 6.75045 8.33327 7.0154 8.33327 7.29167C8.33327 7.56793 8.44302 7.83289 8.63837 8.02824C8.83372 8.22359 9.09867 8.33333 9.37494 8.33333H15.1666L6.55202 16.9688C6.45439 17.0656 6.37689 17.1808 6.32401 17.3077C6.27112 17.4347 6.2439 17.5708 6.2439 17.7083C6.2439 17.8458 6.27112 17.982 6.32401 18.1089C6.37689 18.2359 6.45439 18.3511 6.55202 18.4479C6.64886 18.5455 6.76407 18.623 6.891 18.6759C7.01794 18.7288 7.15409 18.756 7.2916 18.756C7.42912 18.756 7.56527 18.7288 7.6922 18.6759C7.81914 18.623 7.93435 18.5455 8.03119 18.4479L16.6666 9.8125V15.625C16.6666 15.9013 16.7763 16.1662 16.9717 16.3616C17.167 16.5569 17.432 16.6667 17.7083 16.6667C17.9845 16.6667 18.2495 16.5569 18.4448 16.3616C18.6402 16.1662 18.7499 15.9013 18.7499 15.625V7.34375Z" fill="#1E376C"/>
</svg>
